<mxfile host="app.diagrams.net" agent="Mozilla/5.0 (Macintosh; Intel Mac OS X 10_15_7) AppleWebKit/537.36 (KHTML, like Gecko) Chrome/134.0.0.0 Safari/537.36" version="26.2.8">
  <diagram name="第 1 页" id="4uqfuTuLsjAm9NZ_8gLQ">
    <mxGraphModel dx="1611" dy="1082" grid="1" gridSize="10" guides="1" tooltips="1" connect="1" arrows="1" fold="1" page="1" pageScale="1" pageWidth="827" pageHeight="1169" math="0" shadow="0">
      <root>
        <mxCell id="0" />
        <mxCell id="1" parent="0" />
        <mxCell id="qBS3R4FLj50SvzPwj0yw-4" value="" style="shape=umlLifeline;perimeter=lifelinePerimeter;whiteSpace=wrap;html=1;container=1;dropTarget=0;collapsible=0;recursiveResize=0;outlineConnect=0;portConstraint=eastwest;newEdgeStyle={&quot;curved&quot;:0,&quot;rounded&quot;:0};participant=umlActor;" parent="1" vertex="1">
          <mxGeometry x="40" y="140" width="20" height="1140" as="geometry" />
        </mxCell>
        <mxCell id="sr2U5B90ztsbT6rgEtNx-27" value="" style="html=1;points=[[0,0,0,0,5],[0,1,0,0,-5],[1,0,0,0,5],[1,1,0,0,-5]];perimeter=orthogonalPerimeter;outlineConnect=0;targetShapes=umlLifeline;portConstraint=eastwest;newEdgeStyle={&quot;curved&quot;:0,&quot;rounded&quot;:0};" parent="qBS3R4FLj50SvzPwj0yw-4" vertex="1">
          <mxGeometry x="5" y="110" width="10" height="940" as="geometry" />
        </mxCell>
        <mxCell id="qBS3R4FLj50SvzPwj0yw-5" value="ToTok客户端" style="shape=umlLifeline;perimeter=lifelinePerimeter;whiteSpace=wrap;html=1;container=1;dropTarget=0;collapsible=0;recursiveResize=0;outlineConnect=0;portConstraint=eastwest;newEdgeStyle={&quot;curved&quot;:0,&quot;rounded&quot;:0};" parent="1" vertex="1">
          <mxGeometry x="130" y="140" width="100" height="1140" as="geometry" />
        </mxCell>
        <mxCell id="qBS3R4FLj50SvzPwj0yw-12" value="" style="html=1;points=[[0,0,0,0,5],[0,1,0,0,-5],[1,0,0,0,5],[1,1,0,0,-5]];perimeter=orthogonalPerimeter;outlineConnect=0;targetShapes=umlLifeline;portConstraint=eastwest;newEdgeStyle={&quot;curved&quot;:0,&quot;rounded&quot;:0};" parent="qBS3R4FLj50SvzPwj0yw-5" vertex="1">
          <mxGeometry x="44" y="110" width="10" height="750" as="geometry" />
        </mxCell>
        <mxCell id="sr2U5B90ztsbT6rgEtNx-8" value="1.4，展现领奖活动页面" style="html=1;align=left;spacingLeft=2;endArrow=block;rounded=0;edgeStyle=orthogonalEdgeStyle;curved=0;rounded=0;" parent="qBS3R4FLj50SvzPwj0yw-5" edge="1">
          <mxGeometry relative="1" as="geometry">
            <mxPoint x="50" y="432" as="sourcePoint" />
            <Array as="points">
              <mxPoint x="80" y="462" />
            </Array>
            <mxPoint x="55" y="462" as="targetPoint" />
          </mxGeometry>
        </mxCell>
        <mxCell id="qBS3R4FLj50SvzPwj0yw-6" value="ToTok服务端" style="shape=umlLifeline;perimeter=lifelinePerimeter;whiteSpace=wrap;html=1;container=1;dropTarget=0;collapsible=0;recursiveResize=0;outlineConnect=0;portConstraint=eastwest;newEdgeStyle={&quot;curved&quot;:0,&quot;rounded&quot;:0};" parent="1" vertex="1">
          <mxGeometry x="290" y="140" width="90" height="1140" as="geometry" />
        </mxCell>
        <mxCell id="qBS3R4FLj50SvzPwj0yw-18" value="" style="html=1;points=[[0,0,0,0,5],[0,1,0,0,-5],[1,0,0,0,5],[1,1,0,0,-5]];perimeter=orthogonalPerimeter;outlineConnect=0;targetShapes=umlLifeline;portConstraint=eastwest;newEdgeStyle={&quot;curved&quot;:0,&quot;rounded&quot;:0};" parent="qBS3R4FLj50SvzPwj0yw-6" vertex="1">
          <mxGeometry x="40" y="167" width="10" height="313" as="geometry" />
        </mxCell>
        <mxCell id="qBS3R4FLj50SvzPwj0yw-21" value="1.2.1，判断用户是否满足活动要求" style="html=1;verticalAlign=bottom;endArrow=block;curved=0;rounded=0;" parent="qBS3R4FLj50SvzPwj0yw-6" edge="1">
          <mxGeometry y="52" width="80" relative="1" as="geometry">
            <mxPoint x="48" y="203" as="sourcePoint" />
            <mxPoint x="48" y="243" as="targetPoint" />
            <Array as="points">
              <mxPoint x="78" y="203" />
              <mxPoint x="78" y="243" />
              <mxPoint x="48" y="243" />
            </Array>
            <mxPoint as="offset" />
          </mxGeometry>
        </mxCell>
        <mxCell id="qBS3R4FLj50SvzPwj0yw-7" value="Payby SDK" style="shape=umlLifeline;perimeter=lifelinePerimeter;whiteSpace=wrap;html=1;container=1;dropTarget=0;collapsible=0;recursiveResize=0;outlineConnect=0;portConstraint=eastwest;newEdgeStyle={&quot;curved&quot;:0,&quot;rounded&quot;:0};" parent="1" vertex="1">
          <mxGeometry x="450" y="140" width="90" height="1140" as="geometry" />
        </mxCell>
        <mxCell id="sr2U5B90ztsbT6rgEtNx-17" value="" style="html=1;points=[[0,0,0,0,5],[0,1,0,0,-5],[1,0,0,0,5],[1,1,0,0,-5]];perimeter=orthogonalPerimeter;outlineConnect=0;targetShapes=umlLifeline;portConstraint=eastwest;newEdgeStyle={&quot;curved&quot;:0,&quot;rounded&quot;:0};" parent="qBS3R4FLj50SvzPwj0yw-7" vertex="1">
          <mxGeometry x="40" y="583" width="10" height="227" as="geometry" />
        </mxCell>
        <mxCell id="qBS3R4FLj50SvzPwj0yw-8" value="Payby H5" style="shape=umlLifeline;perimeter=lifelinePerimeter;whiteSpace=wrap;html=1;container=1;dropTarget=0;collapsible=0;recursiveResize=0;outlineConnect=0;portConstraint=eastwest;newEdgeStyle={&quot;curved&quot;:0,&quot;rounded&quot;:0};" parent="1" vertex="1">
          <mxGeometry x="600" y="140" width="80" height="1150" as="geometry" />
        </mxCell>
        <mxCell id="sr2U5B90ztsbT6rgEtNx-18" value="" style="html=1;points=[[0,0,0,0,5],[0,1,0,0,-5],[1,0,0,0,5],[1,1,0,0,-5]];perimeter=orthogonalPerimeter;outlineConnect=0;targetShapes=umlLifeline;portConstraint=eastwest;newEdgeStyle={&quot;curved&quot;:0,&quot;rounded&quot;:0};" parent="qBS3R4FLj50SvzPwj0yw-8" vertex="1">
          <mxGeometry x="35" y="583" width="10" height="467" as="geometry" />
        </mxCell>
        <mxCell id="qBS3R4FLj50SvzPwj0yw-9" value="Payby SGS" style="shape=umlLifeline;perimeter=lifelinePerimeter;whiteSpace=wrap;html=1;container=1;dropTarget=0;collapsible=0;recursiveResize=0;outlineConnect=0;portConstraint=eastwest;newEdgeStyle={&quot;curved&quot;:0,&quot;rounded&quot;:0};" parent="1" vertex="1">
          <mxGeometry x="730" y="140" width="80" height="1140" as="geometry" />
        </mxCell>
        <mxCell id="qBS3R4FLj50SvzPwj0yw-22" value="" style="html=1;points=[[0,0,0,0,5],[0,1,0,0,-5],[1,0,0,0,5],[1,1,0,0,-5]];perimeter=orthogonalPerimeter;outlineConnect=0;targetShapes=umlLifeline;portConstraint=eastwest;newEdgeStyle={&quot;curved&quot;:0,&quot;rounded&quot;:0};" parent="qBS3R4FLj50SvzPwj0yw-9" vertex="1">
          <mxGeometry x="35" y="268" width="10" height="152" as="geometry" />
        </mxCell>
        <mxCell id="qBS3R4FLj50SvzPwj0yw-10" value="Payby CGS" style="shape=umlLifeline;perimeter=lifelinePerimeter;whiteSpace=wrap;html=1;container=1;dropTarget=0;collapsible=0;recursiveResize=0;outlineConnect=0;portConstraint=eastwest;newEdgeStyle={&quot;curved&quot;:0,&quot;rounded&quot;:0};" parent="1" vertex="1">
          <mxGeometry x="850" y="140" width="80" height="1140" as="geometry" />
        </mxCell>
        <mxCell id="sr2U5B90ztsbT6rgEtNx-20" value="" style="html=1;points=[[0,0,0,0,5],[0,1,0,0,-5],[1,0,0,0,5],[1,1,0,0,-5]];perimeter=orthogonalPerimeter;outlineConnect=0;targetShapes=umlLifeline;portConstraint=eastwest;newEdgeStyle={&quot;curved&quot;:0,&quot;rounded&quot;:0};" parent="qBS3R4FLj50SvzPwj0yw-10" vertex="1">
          <mxGeometry x="35" y="610" width="10" height="130" as="geometry" />
        </mxCell>
        <mxCell id="qBS3R4FLj50SvzPwj0yw-13" value="1，通话" style="html=1;verticalAlign=bottom;startArrow=oval;endArrow=block;startSize=8;curved=0;rounded=0;entryX=0;entryY=0;entryDx=0;entryDy=5;" parent="1" edge="1">
          <mxGeometry relative="1" as="geometry">
            <mxPoint x="55" y="268.0000000000043" as="sourcePoint" />
            <mxPoint x="174" y="268.0000000000043" as="targetPoint" />
          </mxGeometry>
        </mxCell>
        <mxCell id="qBS3R4FLj50SvzPwj0yw-17" value="1.1，通话结束" style="html=1;verticalAlign=bottom;endArrow=block;curved=0;rounded=0;" parent="1" edge="1">
          <mxGeometry x="0.0868" y="10" width="80" relative="1" as="geometry">
            <mxPoint x="179.5" y="294" as="sourcePoint" />
            <mxPoint x="180" y="323" as="targetPoint" />
            <Array as="points">
              <mxPoint x="220" y="294" />
              <mxPoint x="220" y="323" />
              <mxPoint x="190" y="323" />
            </Array>
            <mxPoint as="offset" />
          </mxGeometry>
        </mxCell>
        <mxCell id="sr2U5B90ztsbT6rgEtNx-2" value="1.2.2.1，判断是否满足活动要求" style="html=1;align=left;spacingLeft=2;endArrow=block;rounded=0;edgeStyle=orthogonalEdgeStyle;curved=0;rounded=0;" parent="1" edge="1">
          <mxGeometry x="-0.7647" y="-11" relative="1" as="geometry">
            <mxPoint x="770" y="434" as="sourcePoint" />
            <Array as="points">
              <mxPoint x="800" y="464" />
            </Array>
            <mxPoint x="775" y="464" as="targetPoint" />
            <mxPoint as="offset" />
          </mxGeometry>
        </mxCell>
        <mxCell id="sr2U5B90ztsbT6rgEtNx-3" value="1.2.2.2，活动报名" style="html=1;align=left;spacingLeft=2;endArrow=block;rounded=0;edgeStyle=orthogonalEdgeStyle;curved=0;rounded=0;" parent="1" edge="1">
          <mxGeometry x="-1" y="-10" relative="1" as="geometry">
            <mxPoint x="770" y="481" as="sourcePoint" />
            <Array as="points">
              <mxPoint x="800" y="511" />
            </Array>
            <mxPoint x="775" y="511" as="targetPoint" />
            <mxPoint as="offset" />
          </mxGeometry>
        </mxCell>
        <mxCell id="sr2U5B90ztsbT6rgEtNx-4" value="1.2.2.3，返回领奖H5地址" style="html=1;verticalAlign=bottom;endArrow=open;dashed=1;endSize=8;curved=0;rounded=0;" parent="1" edge="1">
          <mxGeometry relative="1" as="geometry">
            <mxPoint x="760" y="531" as="sourcePoint" />
            <mxPoint x="334.5" y="531" as="targetPoint" />
          </mxGeometry>
        </mxCell>
        <mxCell id="sr2U5B90ztsbT6rgEtNx-5" value="1.3：" style="html=1;verticalAlign=bottom;endArrow=open;dashed=1;endSize=8;curved=0;rounded=0;" parent="1" edge="1">
          <mxGeometry relative="1" as="geometry">
            <mxPoint x="330" y="549" as="sourcePoint" />
            <mxPoint x="184" y="549" as="targetPoint" />
          </mxGeometry>
        </mxCell>
        <mxCell id="sr2U5B90ztsbT6rgEtNx-9" value="2.3：" style="html=1;verticalAlign=bottom;endArrow=open;dashed=1;endSize=8;curved=0;rounded=0;" parent="1" target="qBS3R4FLj50SvzPwj0yw-4" edge="1">
          <mxGeometry relative="1" as="geometry">
            <mxPoint x="170" y="980" as="sourcePoint" />
            <mxPoint x="90" y="980" as="targetPoint" />
          </mxGeometry>
        </mxCell>
        <mxCell id="sr2U5B90ztsbT6rgEtNx-10" value="1.5：" style="html=1;verticalAlign=bottom;endArrow=open;dashed=1;endSize=8;curved=0;rounded=0;" parent="1" edge="1">
          <mxGeometry relative="1" as="geometry">
            <mxPoint x="180" y="617" as="sourcePoint" />
            <mxPoint x="49.5" y="617" as="targetPoint" />
          </mxGeometry>
        </mxCell>
        <mxCell id="sr2U5B90ztsbT6rgEtNx-11" value="登录" style="shape=umlFrame;whiteSpace=wrap;html=1;pointerEvents=0;" parent="1" vertex="1">
          <mxGeometry x="10" y="210" width="930" height="430" as="geometry" />
        </mxCell>
        <mxCell id="sr2U5B90ztsbT6rgEtNx-13" value="1.2，活动时间提交" style="html=1;verticalAlign=bottom;endArrow=block;curved=0;rounded=0;" parent="1" edge="1">
          <mxGeometry width="80" relative="1" as="geometry">
            <mxPoint x="180" y="364" as="sourcePoint" />
            <mxPoint x="330" y="364" as="targetPoint" />
            <mxPoint as="offset" />
          </mxGeometry>
        </mxCell>
        <mxCell id="sr2U5B90ztsbT6rgEtNx-14" value="1.2.2，活动事件提交" style="html=1;verticalAlign=bottom;endArrow=block;curved=0;rounded=0;entryX=0;entryY=0;entryDx=0;entryDy=5;entryPerimeter=0;" parent="1" source="qBS3R4FLj50SvzPwj0yw-18" edge="1">
          <mxGeometry width="80" relative="1" as="geometry">
            <mxPoint x="340" y="457" as="sourcePoint" />
            <mxPoint x="765" y="417" as="targetPoint" />
          </mxGeometry>
        </mxCell>
        <mxCell id="sr2U5B90ztsbT6rgEtNx-15" value="2，点击领奖" style="html=1;verticalAlign=bottom;startArrow=oval;startFill=1;endArrow=block;startSize=8;curved=0;rounded=0;" parent="1" edge="1">
          <mxGeometry width="60" relative="1" as="geometry">
            <mxPoint x="49.5" y="742" as="sourcePoint" />
            <mxPoint x="174" y="742" as="targetPoint" />
          </mxGeometry>
        </mxCell>
        <mxCell id="sr2U5B90ztsbT6rgEtNx-16" value="2.1，呼起Payby SDK - 根据1.2.2.3返回的领奖地址进行跳转" style="html=1;verticalAlign=bottom;endArrow=block;curved=0;rounded=0;" parent="1" source="qBS3R4FLj50SvzPwj0yw-5" target="sr2U5B90ztsbT6rgEtNx-17" edge="1">
          <mxGeometry width="80" relative="1" as="geometry">
            <mxPoint x="570" y="1110" as="sourcePoint" />
            <mxPoint x="650" y="1110" as="targetPoint" />
          </mxGeometry>
        </mxCell>
        <mxCell id="sr2U5B90ztsbT6rgEtNx-19" value="2.1.1，跳转到领奖页面" style="html=1;verticalAlign=bottom;endArrow=block;curved=0;rounded=0;" parent="1" edge="1">
          <mxGeometry width="80" relative="1" as="geometry">
            <mxPoint x="500" y="789" as="sourcePoint" />
            <mxPoint x="639.5" y="789" as="targetPoint" />
          </mxGeometry>
        </mxCell>
        <mxCell id="sr2U5B90ztsbT6rgEtNx-21" value="2.1.1.1，领奖" style="html=1;verticalAlign=bottom;endArrow=block;curved=0;rounded=0;entryX=0.488;entryY=0.586;entryDx=0;entryDy=0;entryPerimeter=0;" parent="1" source="qBS3R4FLj50SvzPwj0yw-8" target="qBS3R4FLj50SvzPwj0yw-10" edge="1">
          <mxGeometry width="80" relative="1" as="geometry">
            <mxPoint x="570" y="710" as="sourcePoint" />
            <mxPoint x="650" y="710" as="targetPoint" />
          </mxGeometry>
        </mxCell>
        <mxCell id="sr2U5B90ztsbT6rgEtNx-22" value="2.1.1.4：" style="html=1;verticalAlign=bottom;endArrow=open;dashed=1;endSize=8;curved=0;rounded=0;" parent="1" source="sr2U5B90ztsbT6rgEtNx-18" target="sr2U5B90ztsbT6rgEtNx-17" edge="1">
          <mxGeometry relative="1" as="geometry">
            <mxPoint x="650" y="710" as="sourcePoint" />
            <mxPoint x="570" y="710" as="targetPoint" />
            <Array as="points">
              <mxPoint x="580" y="930" />
            </Array>
          </mxGeometry>
        </mxCell>
        <mxCell id="sr2U5B90ztsbT6rgEtNx-23" value="2.1.1.2：" style="html=1;verticalAlign=bottom;endArrow=open;dashed=1;endSize=8;curved=0;rounded=0;" parent="1" edge="1">
          <mxGeometry relative="1" as="geometry">
            <mxPoint x="889.5" y="860" as="sourcePoint" />
            <mxPoint x="639.5" y="860" as="targetPoint" />
          </mxGeometry>
        </mxCell>
        <mxCell id="sr2U5B90ztsbT6rgEtNx-25" value="2.1.1.3，根据事件类型显示领奖结果页面" style="html=1;align=left;spacingLeft=2;endArrow=block;rounded=0;edgeStyle=orthogonalEdgeStyle;curved=0;rounded=0;" parent="1" edge="1">
          <mxGeometry relative="1" as="geometry">
            <mxPoint x="640" y="890" as="sourcePoint" />
            <Array as="points">
              <mxPoint x="670" y="920" />
            </Array>
            <mxPoint x="645" y="920" as="targetPoint" />
          </mxGeometry>
        </mxCell>
        <mxCell id="sr2U5B90ztsbT6rgEtNx-26" value="2.2：" style="html=1;verticalAlign=bottom;endArrow=open;dashed=1;endSize=8;curved=0;rounded=0;" parent="1" target="qBS3R4FLj50SvzPwj0yw-5" edge="1">
          <mxGeometry relative="1" as="geometry">
            <mxPoint x="490.25" y="950" as="sourcePoint" />
            <mxPoint x="179.75" y="950" as="targetPoint" />
            <Array as="points" />
          </mxGeometry>
        </mxCell>
        <mxCell id="sr2U5B90ztsbT6rgEtNx-29" value="参与活动" style="shape=umlFrame;whiteSpace=wrap;html=1;pointerEvents=0;" parent="1" vertex="1">
          <mxGeometry x="10" y="680" width="930" height="330" as="geometry" />
        </mxCell>
        <mxCell id="sr2U5B90ztsbT6rgEtNx-31" value="3，分享活动参与链接" style="html=1;verticalAlign=bottom;startArrow=oval;startFill=1;endArrow=block;startSize=8;curved=0;rounded=0;" parent="1" edge="1">
          <mxGeometry width="60" relative="1" as="geometry">
            <mxPoint x="49.5" y="1100" as="sourcePoint" />
            <mxPoint x="640" y="1100" as="targetPoint" />
          </mxGeometry>
        </mxCell>
        <mxCell id="sr2U5B90ztsbT6rgEtNx-32" value="3.1：" style="html=1;verticalAlign=bottom;endArrow=open;dashed=1;endSize=8;curved=0;rounded=0;entryX=1;entryY=1;entryDx=0;entryDy=-5;entryPerimeter=0;" parent="1" edge="1">
          <mxGeometry relative="1" as="geometry">
            <mxPoint x="639.5" y="1145" as="sourcePoint" />
            <mxPoint x="55" y="1145" as="targetPoint" />
          </mxGeometry>
        </mxCell>
        <mxCell id="sr2U5B90ztsbT6rgEtNx-33" value="分享活动" style="shape=umlFrame;whiteSpace=wrap;html=1;pointerEvents=0;" parent="1" vertex="1">
          <mxGeometry x="10" y="1060" width="930" height="140" as="geometry" />
        </mxCell>
      </root>
    </mxGraphModel>
  </diagram>
</mxfile>
